<svg width="103" height="101" viewBox="0 0 103 101" fill="none" xmlns="http://www.w3.org/2000/svg">
<g id="Frame 427319211">
<rect id="Rectangle 34624520" x="103" y="101" width="103" height="101" rx="50" transform="rotate(-180 103 101)" fill="#1E1E1E"/>
<path id="Vector" d="M51 33C52.7792 33 54.4855 33.8901 55.7435 35.4744C57.0016 37.0588 57.7083 39.2077 57.7083 41.4483C57.7083 43.6889 57.0016 45.8377 55.7435 47.4221C54.4855 49.0065 52.7792 49.8966 51 49.8966C49.2208 49.8966 47.5145 49.0065 46.2565 47.4221C44.9984 45.8377 44.2917 43.6889 44.2917 41.4483C44.2917 39.2077 44.9984 37.0588 46.2565 35.4744C47.5145 33.8901 49.2208 33 51 33ZM37.5833 39.0345C38.6567 39.0345 39.6533 39.3966 40.5158 40.0483C40.2283 43.5 41.0333 46.9276 42.6817 49.6069C41.7233 51.9241 39.8067 53.5172 37.5833 53.5172C36.0583 53.5172 34.5958 52.7543 33.5175 51.3963C32.4391 50.0383 31.8333 48.1964 31.8333 46.2759C31.8333 44.3553 32.4391 42.5135 33.5175 41.1554C34.5958 39.7974 36.0583 39.0345 37.5833 39.0345ZM64.4167 39.0345C65.9417 39.0345 67.4042 39.7974 68.4825 41.1554C69.5609 42.5135 70.1667 44.3553 70.1667 46.2759C70.1667 48.1964 69.5609 50.0383 68.4825 51.3963C67.4042 52.7543 65.9417 53.5172 64.4167 53.5172C62.1933 53.5172 60.2767 51.9241 59.3183 49.6069C60.9667 46.9276 61.7717 43.5 61.4842 40.0483C62.3467 39.3966 63.3433 39.0345 64.4167 39.0345ZM38.5417 63.7759C38.5417 58.7793 44.1192 54.7241 51 54.7241C57.8808 54.7241 63.4583 58.7793 63.4583 63.7759V68H38.5417V63.7759ZM28 68V64.3793C28 61.0241 31.6225 58.2 36.5292 57.3793C35.3983 59.0207 34.7083 61.2897 34.7083 63.7759V68H28ZM74 68H67.2917V63.7759C67.2917 61.2897 66.6017 59.0207 65.4708 57.3793C70.3775 58.2 74 61.0241 74 64.3793V68Z" fill="white"/>
</g>
</svg>
