<svg width="584" height="611" viewBox="0 0 584 611" fill="none" xmlns="http://www.w3.org/2000/svg">
<g filter="url(#filter0_d_1568_15291)">
<ellipse cx="278" cy="230.5" rx="255" ry="230.5" fill="#ECEFF5"/>
</g>
<g filter="url(#filter1_d_1568_15291)">
<ellipse cx="41.5" cy="569.5" rx="34.5" ry="33.5" fill="#D9D9D9"/>
</g>
<path d="M45.4752 547.784C40.9087 546.916 36.1765 547.365 31.8768 549.074C27.5772 550.782 23.9033 553.675 21.3198 557.385C18.7362 561.094 17.359 565.455 17.3624 569.916C17.3657 574.376 18.7494 578.736 21.3385 582.443L40.8998 569.905L45.4752 547.784Z" fill="#333333"/>
<path d="M34.7831 548.126C31.411 548.995 28.2831 550.572 25.6261 552.742C22.9691 554.913 20.8496 557.623 19.4213 560.676C17.993 563.729 17.2916 567.048 17.368 570.393C17.4444 573.738 18.2967 577.025 19.8631 580.016L40.8998 569.905L34.7831 548.126Z" fill="#9A9594"/>
<path d="M17.5776 566.857C16.9568 571.225 17.6857 575.671 19.6741 579.647C21.6625 583.623 24.8232 586.953 28.7655 589.227C32.7077 591.5 37.2587 592.617 41.8557 592.439C46.4527 592.261 50.8941 590.796 54.6309 588.226C58.3677 585.655 61.2359 582.091 62.8811 577.975C64.5262 573.858 64.8761 569.37 63.8875 565.065C62.8988 560.759 60.615 556.825 57.3184 553.75C54.0218 550.674 49.8569 548.591 45.3387 547.759L40.8998 569.905L17.5776 566.857Z" fill="#1E1E1E"/>
<path d="M19.2749 560.995C17.9798 563.882 17.3288 566.997 17.3637 570.139C17.3986 573.282 18.1185 576.383 19.4774 579.243L40.8998 569.905L19.2749 560.995Z" fill="white"/>
<g filter="url(#filter2_d_1568_15291)">
<rect x="84" y="509" width="404" height="350" rx="20" transform="rotate(-90 84 509)" fill="white"/>
</g>
<rect x="157" y="220" width="29" height="219.96" rx="4" fill="#D9D9D9"/>
<rect x="122" y="390" width="29" height="49.7491" rx="4" fill="#1E1E1E"/>
<rect x="192" y="204" width="29" height="236.749" rx="4" fill="#1E1E1E"/>
<rect x="227" y="243" width="29" height="197.749" rx="4" fill="#D9D9D9"/>
<rect x="262" y="303" width="29" height="137.749" rx="4" fill="#1E1E1E"/>
<rect x="297" y="204" width="29" height="237" rx="4" fill="#D9D9D9"/>
<rect x="332" y="221" width="29" height="220" rx="4" fill="#1E1E1E"/>
<rect x="367" y="328" width="29" height="114" rx="4" fill="#D9D9D9"/>
<path d="M17.0857 311C21.6171 311 25.9629 312.839 29.1671 316.113C32.3713 319.387 34.1714 323.827 34.1714 328.457C34.1714 332.781 32.6206 336.756 30.0709 339.818L30.7806 340.543H32.8571L46 353.971L42.0571 358L28.9143 344.571V342.45L28.2046 341.725C25.208 344.33 21.3177 345.914 17.0857 345.914C12.5543 345.914 8.20848 344.075 5.00429 340.801C1.8001 337.527 0 333.087 0 328.457C0 323.827 1.8001 319.387 5.00429 316.113C8.20848 312.839 12.5543 311 17.0857 311ZM17.0857 316.371C10.5143 316.371 5.25714 321.743 5.25714 328.457C5.25714 335.171 10.5143 340.543 17.0857 340.543C23.6571 340.543 28.9143 335.171 28.9143 328.457C28.9143 321.743 23.6571 316.371 17.0857 316.371Z" fill="#59564F"/>
<g filter="url(#filter3_d_1568_15291)">
<path d="M378 213C372.477 213 368 208.523 368 203V110C368 98.9543 376.954 90 388 90L465 90C470.523 90 475 94.4771 475 100V193C475 204.046 466.046 213 455 213L378 213Z" fill="white"/>
</g>
<g filter="url(#filter4_d_1568_15291)">
<rect x="459" y="139" width="74" height="7" rx="3.5" transform="rotate(-180 459 139)" fill="#59564F"/>
</g>
<g filter="url(#filter5_d_1568_15291)">
<rect x="459" y="127" width="74" height="7" rx="3.5" transform="rotate(-180 459 127)" fill="#59564F"/>
</g>
<g filter="url(#filter6_d_1568_15291)">
<rect x="459" y="115" width="74" height="7" rx="3.5" transform="rotate(-180 459 115)" fill="#59564F"/>
</g>
<g filter="url(#filter7_d_1568_15291)">
<rect x="459" y="165" width="74" height="8" rx="4" transform="rotate(-180 459 165)" fill="#59564F"/>
</g>
<g filter="url(#filter8_d_1568_15291)">
<rect x="458" y="178" width="74" height="8" rx="4" transform="rotate(-180 458 178)" fill="#59564F"/>
</g>
<g filter="url(#filter9_d_1568_15291)">
<rect x="431" y="190" width="46" height="7" rx="3.5" transform="rotate(-180 431 190)" fill="#59564F"/>
</g>
<g filter="url(#filter10_d_1568_15291)">
<rect x="459" y="152" width="74" height="8" rx="4" transform="rotate(-180 459 152)" fill="#59564F"/>
</g>
<path d="M452.918 472.455V487H450.716V474.656H450.631L447.151 476.929V474.827L450.78 472.455H452.918ZM461.916 487.241C460.794 487.237 459.835 486.941 459.04 486.354C458.244 485.767 457.636 484.912 457.214 483.79C456.793 482.668 456.582 481.316 456.582 479.734C456.582 478.158 456.793 476.811 457.214 475.693C457.641 474.576 458.251 473.723 459.047 473.136C459.847 472.549 460.804 472.256 461.916 472.256C463.029 472.256 463.983 472.552 464.778 473.143C465.574 473.731 466.182 474.583 466.604 475.7C467.03 476.813 467.243 478.158 467.243 479.734C467.243 481.321 467.032 482.675 466.611 483.797C466.189 484.914 465.581 485.769 464.786 486.361C463.99 486.948 463.034 487.241 461.916 487.241ZM461.916 485.345C462.901 485.345 463.67 484.865 464.224 483.903C464.783 482.942 465.062 481.553 465.062 479.734C465.062 478.527 464.935 477.507 464.679 476.673C464.428 475.835 464.066 475.201 463.592 474.77C463.124 474.334 462.565 474.116 461.916 474.116C460.936 474.116 460.167 474.599 459.608 475.565C459.049 476.531 458.768 477.921 458.763 479.734C458.763 480.946 458.888 481.972 459.139 482.81C459.395 483.643 459.757 484.275 460.226 484.706C460.695 485.132 461.258 485.345 461.916 485.345ZM474.826 487.241C473.704 487.237 472.745 486.941 471.95 486.354C471.154 485.767 470.546 484.912 470.125 483.79C469.703 482.668 469.493 481.316 469.493 479.734C469.493 478.158 469.703 476.811 470.125 475.693C470.551 474.576 471.162 473.723 471.957 473.136C472.757 472.549 473.714 472.256 474.826 472.256C475.939 472.256 476.893 472.552 477.689 473.143C478.484 473.731 479.092 474.583 479.514 475.7C479.94 476.813 480.153 478.158 480.153 479.734C480.153 481.321 479.942 482.675 479.521 483.797C479.1 484.914 478.491 485.769 477.696 486.361C476.9 486.948 475.944 487.241 474.826 487.241ZM474.826 485.345C475.811 485.345 476.581 484.865 477.135 483.903C477.693 482.942 477.973 481.553 477.973 479.734C477.973 478.527 477.845 477.507 477.589 476.673C477.338 475.835 476.976 475.201 476.502 474.77C476.034 474.334 475.475 474.116 474.826 474.116C473.846 474.116 473.077 474.599 472.518 475.565C471.959 476.531 471.678 477.921 471.673 479.734C471.673 480.946 471.798 481.972 472.049 482.81C472.305 483.643 472.667 484.275 473.136 484.706C473.605 485.132 474.168 485.345 474.826 485.345ZM490.265 484.273V483.506C490.265 482.956 490.379 482.455 490.606 482C490.838 481.541 491.174 481.174 491.614 480.899C492.059 480.62 492.597 480.48 493.227 480.48C493.871 480.48 494.41 480.617 494.846 480.892C495.281 481.167 495.611 481.534 495.833 481.993C496.06 482.452 496.174 482.956 496.174 483.506V484.273C496.174 484.822 496.06 485.326 495.833 485.786C495.606 486.24 495.272 486.607 494.832 486.886C494.396 487.161 493.861 487.298 493.227 487.298C492.587 487.298 492.048 487.161 491.607 486.886C491.167 486.607 490.833 486.24 490.606 485.786C490.379 485.326 490.265 484.822 490.265 484.273ZM491.92 483.506V484.273C491.92 484.68 492.017 485.049 492.211 485.381C492.405 485.712 492.744 485.878 493.227 485.878C493.705 485.878 494.039 485.712 494.228 485.381C494.417 485.049 494.512 484.68 494.512 484.273V483.506C494.512 483.098 494.42 482.729 494.235 482.398C494.055 482.066 493.719 481.901 493.227 481.901C492.753 481.901 492.417 482.066 492.218 482.398C492.019 482.729 491.92 483.098 491.92 483.506ZM482.95 475.949V475.182C482.95 474.633 483.063 474.128 483.29 473.669C483.522 473.21 483.859 472.843 484.299 472.568C484.744 472.294 485.281 472.156 485.911 472.156C486.555 472.156 487.095 472.294 487.531 472.568C487.966 472.843 488.295 473.21 488.518 473.669C488.74 474.128 488.852 474.633 488.852 475.182V475.949C488.852 476.498 488.738 477.002 488.511 477.462C488.288 477.916 487.957 478.283 487.516 478.562C487.081 478.837 486.546 478.974 485.911 478.974C485.267 478.974 484.725 478.837 484.285 478.562C483.849 478.283 483.518 477.916 483.29 477.462C483.063 477.002 482.95 476.498 482.95 475.949ZM484.612 475.182V475.949C484.612 476.356 484.706 476.725 484.896 477.057C485.09 477.388 485.428 477.554 485.911 477.554C486.385 477.554 486.716 477.388 486.906 477.057C487.1 476.725 487.197 476.356 487.197 475.949V475.182C487.197 474.775 487.104 474.405 486.92 474.074C486.735 473.742 486.399 473.577 485.911 473.577C485.438 473.577 485.102 473.742 484.903 474.074C484.709 474.405 484.612 474.775 484.612 475.182ZM483.624 487L493.624 472.455H495.322L485.322 487H483.624Z" fill="#454459"/>
<g filter="url(#filter11_d_1568_15291)">
<path d="M572.938 438.361C580.188 458.632 581.082 480.605 575.502 501.387C569.921 522.169 558.128 540.787 541.674 554.789C525.22 568.792 504.876 577.523 483.32 579.834C461.764 582.145 440.006 577.928 420.91 567.737C401.814 557.545 386.274 541.858 376.336 522.74C366.398 503.622 362.528 481.968 365.235 460.629C367.941 439.29 377.098 419.265 391.5 403.191C405.902 387.116 424.873 375.745 445.918 370.574L451.086 391.249C434.25 395.386 419.073 404.483 407.551 417.343C396.03 430.202 388.705 446.222 386.539 463.293C384.374 480.365 387.47 497.688 395.42 512.982C403.371 528.277 415.802 540.827 431.079 548.979C446.356 557.132 463.763 560.506 481.007 558.657C498.252 556.809 514.527 549.824 527.69 538.622C540.854 527.42 550.289 512.526 554.753 495.9C559.217 479.274 558.502 461.696 552.702 445.479L572.938 438.361Z" fill="#D9D9D9"/>
<path d="M445.582 370.657C471.431 364.218 498.774 367.547 522.29 379.998C545.807 392.448 563.816 413.13 572.815 438.019L552.603 445.205C545.404 425.294 530.997 408.749 512.184 398.788C493.37 388.828 471.496 386.164 450.817 391.316L445.582 370.657Z" fill="#28292B"/>
</g>
<defs>
<filter id="filter0_d_1568_15291" x="19" y="0" width="518" height="469" filterUnits="userSpaceOnUse" color-interpolation-filters="sRGB">
<feFlood flood-opacity="0" result="BackgroundImageFix"/>
<feColorMatrix in="SourceAlpha" type="matrix" values="0 0 0 0 0 0 0 0 0 0 0 0 0 0 0 0 0 0 127 0" result="hardAlpha"/>
<feOffset dy="4"/>
<feGaussianBlur stdDeviation="2"/>
<feComposite in2="hardAlpha" operator="out"/>
<feColorMatrix type="matrix" values="0 0 0 0 0 0 0 0 0 0 0 0 0 0 0 0 0 0 0.25 0"/>
<feBlend mode="normal" in2="BackgroundImageFix" result="effect1_dropShadow_1568_15291"/>
<feBlend mode="normal" in="SourceGraphic" in2="effect1_dropShadow_1568_15291" result="shape"/>
</filter>
<filter id="filter1_d_1568_15291" x="3" y="536" width="77" height="75" filterUnits="userSpaceOnUse" color-interpolation-filters="sRGB">
<feFlood flood-opacity="0" result="BackgroundImageFix"/>
<feColorMatrix in="SourceAlpha" type="matrix" values="0 0 0 0 0 0 0 0 0 0 0 0 0 0 0 0 0 0 127 0" result="hardAlpha"/>
<feOffset dy="4"/>
<feGaussianBlur stdDeviation="2"/>
<feComposite in2="hardAlpha" operator="out"/>
<feColorMatrix type="matrix" values="0 0 0 0 0 0 0 0 0 0 0 0 0 0 0 0 0 0 0.25 0"/>
<feBlend mode="normal" in2="BackgroundImageFix" result="effect1_dropShadow_1568_15291"/>
<feBlend mode="normal" in="SourceGraphic" in2="effect1_dropShadow_1568_15291" result="shape"/>
</filter>
<filter id="filter2_d_1568_15291" x="80" y="105" width="358" height="412" filterUnits="userSpaceOnUse" color-interpolation-filters="sRGB">
<feFlood flood-opacity="0" result="BackgroundImageFix"/>
<feColorMatrix in="SourceAlpha" type="matrix" values="0 0 0 0 0 0 0 0 0 0 0 0 0 0 0 0 0 0 127 0" result="hardAlpha"/>
<feOffset dy="4"/>
<feGaussianBlur stdDeviation="2"/>
<feComposite in2="hardAlpha" operator="out"/>
<feColorMatrix type="matrix" values="0 0 0 0 0 0 0 0 0 0 0 0 0 0 0 0 0 0 0.25 0"/>
<feBlend mode="normal" in2="BackgroundImageFix" result="effect1_dropShadow_1568_15291"/>
<feBlend mode="normal" in="SourceGraphic" in2="effect1_dropShadow_1568_15291" result="shape"/>
</filter>
<filter id="filter3_d_1568_15291" x="364" y="90" width="115" height="131" filterUnits="userSpaceOnUse" color-interpolation-filters="sRGB">
<feFlood flood-opacity="0" result="BackgroundImageFix"/>
<feColorMatrix in="SourceAlpha" type="matrix" values="0 0 0 0 0 0 0 0 0 0 0 0 0 0 0 0 0 0 127 0" result="hardAlpha"/>
<feOffset dy="4"/>
<feGaussianBlur stdDeviation="2"/>
<feComposite in2="hardAlpha" operator="out"/>
<feColorMatrix type="matrix" values="0 0 0 0 0 0 0 0 0 0 0 0 0 0 0 0 0 0 0.25 0"/>
<feBlend mode="normal" in2="BackgroundImageFix" result="effect1_dropShadow_1568_15291"/>
<feBlend mode="normal" in="SourceGraphic" in2="effect1_dropShadow_1568_15291" result="shape"/>
</filter>
<filter id="filter4_d_1568_15291" x="381" y="132" width="82" height="15" filterUnits="userSpaceOnUse" color-interpolation-filters="sRGB">
<feFlood flood-opacity="0" result="BackgroundImageFix"/>
<feColorMatrix in="SourceAlpha" type="matrix" values="0 0 0 0 0 0 0 0 0 0 0 0 0 0 0 0 0 0 127 0" result="hardAlpha"/>
<feOffset dy="4"/>
<feGaussianBlur stdDeviation="2"/>
<feComposite in2="hardAlpha" operator="out"/>
<feColorMatrix type="matrix" values="0 0 0 0 0 0 0 0 0 0 0 0 0 0 0 0 0 0 0.25 0"/>
<feBlend mode="normal" in2="BackgroundImageFix" result="effect1_dropShadow_1568_15291"/>
<feBlend mode="normal" in="SourceGraphic" in2="effect1_dropShadow_1568_15291" result="shape"/>
</filter>
<filter id="filter5_d_1568_15291" x="381" y="120" width="82" height="15" filterUnits="userSpaceOnUse" color-interpolation-filters="sRGB">
<feFlood flood-opacity="0" result="BackgroundImageFix"/>
<feColorMatrix in="SourceAlpha" type="matrix" values="0 0 0 0 0 0 0 0 0 0 0 0 0 0 0 0 0 0 127 0" result="hardAlpha"/>
<feOffset dy="4"/>
<feGaussianBlur stdDeviation="2"/>
<feComposite in2="hardAlpha" operator="out"/>
<feColorMatrix type="matrix" values="0 0 0 0 0 0 0 0 0 0 0 0 0 0 0 0 0 0 0.25 0"/>
<feBlend mode="normal" in2="BackgroundImageFix" result="effect1_dropShadow_1568_15291"/>
<feBlend mode="normal" in="SourceGraphic" in2="effect1_dropShadow_1568_15291" result="shape"/>
</filter>
<filter id="filter6_d_1568_15291" x="381" y="108" width="82" height="15" filterUnits="userSpaceOnUse" color-interpolation-filters="sRGB">
<feFlood flood-opacity="0" result="BackgroundImageFix"/>
<feColorMatrix in="SourceAlpha" type="matrix" values="0 0 0 0 0 0 0 0 0 0 0 0 0 0 0 0 0 0 127 0" result="hardAlpha"/>
<feOffset dy="4"/>
<feGaussianBlur stdDeviation="2"/>
<feComposite in2="hardAlpha" operator="out"/>
<feColorMatrix type="matrix" values="0 0 0 0 0 0 0 0 0 0 0 0 0 0 0 0 0 0 0.25 0"/>
<feBlend mode="normal" in2="BackgroundImageFix" result="effect1_dropShadow_1568_15291"/>
<feBlend mode="normal" in="SourceGraphic" in2="effect1_dropShadow_1568_15291" result="shape"/>
</filter>
<filter id="filter7_d_1568_15291" x="381" y="157" width="82" height="16" filterUnits="userSpaceOnUse" color-interpolation-filters="sRGB">
<feFlood flood-opacity="0" result="BackgroundImageFix"/>
<feColorMatrix in="SourceAlpha" type="matrix" values="0 0 0 0 0 0 0 0 0 0 0 0 0 0 0 0 0 0 127 0" result="hardAlpha"/>
<feOffset dy="4"/>
<feGaussianBlur stdDeviation="2"/>
<feComposite in2="hardAlpha" operator="out"/>
<feColorMatrix type="matrix" values="0 0 0 0 0 0 0 0 0 0 0 0 0 0 0 0 0 0 0.25 0"/>
<feBlend mode="normal" in2="BackgroundImageFix" result="effect1_dropShadow_1568_15291"/>
<feBlend mode="normal" in="SourceGraphic" in2="effect1_dropShadow_1568_15291" result="shape"/>
</filter>
<filter id="filter8_d_1568_15291" x="380" y="170" width="82" height="16" filterUnits="userSpaceOnUse" color-interpolation-filters="sRGB">
<feFlood flood-opacity="0" result="BackgroundImageFix"/>
<feColorMatrix in="SourceAlpha" type="matrix" values="0 0 0 0 0 0 0 0 0 0 0 0 0 0 0 0 0 0 127 0" result="hardAlpha"/>
<feOffset dy="4"/>
<feGaussianBlur stdDeviation="2"/>
<feComposite in2="hardAlpha" operator="out"/>
<feColorMatrix type="matrix" values="0 0 0 0 0 0 0 0 0 0 0 0 0 0 0 0 0 0 0.25 0"/>
<feBlend mode="normal" in2="BackgroundImageFix" result="effect1_dropShadow_1568_15291"/>
<feBlend mode="normal" in="SourceGraphic" in2="effect1_dropShadow_1568_15291" result="shape"/>
</filter>
<filter id="filter9_d_1568_15291" x="381" y="183" width="54" height="15" filterUnits="userSpaceOnUse" color-interpolation-filters="sRGB">
<feFlood flood-opacity="0" result="BackgroundImageFix"/>
<feColorMatrix in="SourceAlpha" type="matrix" values="0 0 0 0 0 0 0 0 0 0 0 0 0 0 0 0 0 0 127 0" result="hardAlpha"/>
<feOffset dy="4"/>
<feGaussianBlur stdDeviation="2"/>
<feComposite in2="hardAlpha" operator="out"/>
<feColorMatrix type="matrix" values="0 0 0 0 0 0 0 0 0 0 0 0 0 0 0 0 0 0 0.25 0"/>
<feBlend mode="normal" in2="BackgroundImageFix" result="effect1_dropShadow_1568_15291"/>
<feBlend mode="normal" in="SourceGraphic" in2="effect1_dropShadow_1568_15291" result="shape"/>
</filter>
<filter id="filter10_d_1568_15291" x="381" y="144" width="82" height="16" filterUnits="userSpaceOnUse" color-interpolation-filters="sRGB">
<feFlood flood-opacity="0" result="BackgroundImageFix"/>
<feColorMatrix in="SourceAlpha" type="matrix" values="0 0 0 0 0 0 0 0 0 0 0 0 0 0 0 0 0 0 127 0" result="hardAlpha"/>
<feOffset dy="4"/>
<feGaussianBlur stdDeviation="2"/>
<feComposite in2="hardAlpha" operator="out"/>
<feColorMatrix type="matrix" values="0 0 0 0 0 0 0 0 0 0 0 0 0 0 0 0 0 0 0.25 0"/>
<feBlend mode="normal" in2="BackgroundImageFix" result="effect1_dropShadow_1568_15291"/>
<feBlend mode="normal" in="SourceGraphic" in2="effect1_dropShadow_1568_15291" result="shape"/>
</filter>
<filter id="filter11_d_1568_15291" x="360.395" y="367.45" width="222.723" height="221" filterUnits="userSpaceOnUse" color-interpolation-filters="sRGB">
<feFlood flood-opacity="0" result="BackgroundImageFix"/>
<feColorMatrix in="SourceAlpha" type="matrix" values="0 0 0 0 0 0 0 0 0 0 0 0 0 0 0 0 0 0 127 0" result="hardAlpha"/>
<feOffset dy="4"/>
<feGaussianBlur stdDeviation="2"/>
<feComposite in2="hardAlpha" operator="out"/>
<feColorMatrix type="matrix" values="0 0 0 0 0 0 0 0 0 0 0 0 0 0 0 0 0 0 0.25 0"/>
<feBlend mode="normal" in2="BackgroundImageFix" result="effect1_dropShadow_1568_15291"/>
<feBlend mode="normal" in="SourceGraphic" in2="effect1_dropShadow_1568_15291" result="shape"/>
</filter>
</defs>
</svg>
