<svg width="103" height="101" viewBox="0 0 103 101" fill="none" xmlns="http://www.w3.org/2000/svg">
<g id="Frame 427319212">
<rect id="Rectangle 34624524" x="103" y="101" width="103" height="101" rx="50" transform="rotate(-180 103 101)" fill="#1E1E1E"/>
<g id="manage_accounts">
<mask id="mask0_1568_15294" style="mask-type:alpha" maskUnits="userSpaceOnUse" x="29" y="27" width="44" height="47">
<rect id="Bounding box" x="29" y="27" width="44" height="47" fill="#D9D9D9"/>
</mask>
<g mask="url(#mask0_1568_15294)">
<path id="manage_accounts_2" d="M47.3346 50.5002C45.318 50.5002 43.5916 49.7331 42.1555 48.1991C40.7194 46.6651 40.0013 44.821 40.0013 42.6668C40.0013 40.5127 40.7194 38.6686 42.1555 37.1345C43.5916 35.6005 45.318 34.8335 47.3346 34.8335C49.3513 34.8335 51.0777 35.6005 52.5138 37.1345C53.9499 38.6686 54.668 40.5127 54.668 42.6668C54.668 44.821 53.9499 46.6651 52.5138 48.1991C51.0777 49.7331 49.3513 50.5002 47.3346 50.5002ZM32.668 66.1668V60.6835C32.668 59.6064 32.9277 58.5946 33.4471 57.6481C33.9666 56.7016 34.6846 55.9835 35.6013 55.4939C37.1596 54.6453 38.9166 53.9272 40.8721 53.3397C42.8277 52.7522 44.9819 52.4585 47.3346 52.4585H47.9763C48.1596 52.4585 48.343 52.4911 48.5263 52.5564C48.2819 53.1439 48.0756 53.7559 47.9076 54.3924C47.7395 55.0288 47.6096 55.6897 47.518 56.3752H47.3346C45.1652 56.3752 43.2173 56.6689 41.4909 57.2564C39.7645 57.8439 38.3513 58.4314 37.2513 59.0189C36.9763 59.1821 36.7548 59.4106 36.5867 59.7043C36.4187 59.9981 36.3346 60.3245 36.3346 60.6835V62.2502H47.8846C48.068 62.9356 48.3124 63.6128 48.618 64.2819C48.9235 64.951 49.2596 65.5793 49.6263 66.1668H32.668ZM58.3346 68.1252L57.7846 65.1877C57.418 65.0245 57.0742 64.8531 56.7534 64.6736C56.4326 64.4941 56.1041 64.2738 55.768 64.0127L53.1096 64.8939L51.2763 61.5647L53.3846 59.6064C53.3235 59.1495 53.293 58.7252 53.293 58.3335C53.293 57.9418 53.3235 57.5175 53.3846 57.0606L51.2763 55.1022L53.1096 51.7731L55.768 52.6543C56.1041 52.3932 56.4326 52.1729 56.7534 51.9934C57.0742 51.8139 57.418 51.6425 57.7846 51.4793L58.3346 48.5418H62.0013L62.5513 51.4793C62.918 51.6425 63.2617 51.822 63.5826 52.0179C63.9034 52.2137 64.2319 52.4585 64.568 52.7522L67.2263 51.7731L69.0596 55.2002L66.9513 57.1585C67.0124 57.5502 67.043 57.9582 67.043 58.3825C67.043 58.8068 67.0124 59.2147 66.9513 59.6064L69.0596 61.5647L67.2263 64.8939L64.568 64.0127C64.2319 64.2738 63.9034 64.4941 63.5826 64.6736C63.2617 64.8531 62.918 65.0245 62.5513 65.1877L62.0013 68.1252H58.3346ZM60.168 62.2502C61.1763 62.2502 62.0395 61.8667 62.7576 61.0996C63.4756 60.3326 63.8346 59.4106 63.8346 58.3335C63.8346 57.2564 63.4756 56.3344 62.7576 55.5674C62.0395 54.8003 61.1763 54.4168 60.168 54.4168C59.1596 54.4168 58.2964 54.8003 57.5784 55.5674C56.8603 56.3344 56.5013 57.2564 56.5013 58.3335C56.5013 59.4106 56.8603 60.3326 57.5784 61.0996C58.2964 61.8667 59.1596 62.2502 60.168 62.2502ZM47.3346 46.5835C48.343 46.5835 49.2062 46.2 49.9242 45.433C50.6423 44.666 51.0013 43.7439 51.0013 42.6668C51.0013 41.5897 50.6423 40.6677 49.9242 39.9007C49.2062 39.1337 48.343 38.7502 47.3346 38.7502C46.3263 38.7502 45.4631 39.1337 44.7451 39.9007C44.027 40.6677 43.668 41.5897 43.668 42.6668C43.668 43.7439 44.027 44.666 44.7451 45.433C45.4631 46.2 46.3263 46.5835 47.3346 46.5835Z" fill="white"/>
</g>
</g>
</g>
</svg>
