<svg width="123" height="20" viewBox="0 0 123 20" fill="none" xmlns="http://www.w3.org/2000/svg">
<g id="shape_57">
<path id="Vector" d="M122.19 1.89999C122.19 2.3933 121.994 2.86639 121.646 3.21521C121.297 3.56403 120.824 3.76001 120.33 3.76001H12.9303C12.437 3.76001 11.9639 3.56403 11.6151 3.21521C11.2662 2.86639 11.0703 2.3933 11.0703 1.89999V1.85999C11.0703 1.36668 11.2662 0.893587 11.6151 0.544769C11.9639 0.195952 12.437 0 12.9303 0H120.33C120.824 0 121.297 0.195952 121.646 0.544769C121.994 0.893587 122.19 1.36668 122.19 1.85999V1.89999Z" fill="#001133"/>
<path id="Vector_2" d="M109.02 17.7C109.02 18.1774 108.83 18.6352 108.493 18.9728C108.155 19.3103 107.697 19.5 107.22 19.5H1.79999C1.56361 19.5 1.32953 19.4534 1.11115 19.363C0.892759 19.2725 0.694306 19.1399 0.527161 18.9728C0.360015 18.8056 0.227482 18.6072 0.137024 18.3888C0.0465655 18.1704 0 17.9364 0 17.7V17.3C0 17.0636 0.0465655 16.8296 0.137024 16.6112C0.227482 16.3928 0.360015 16.1944 0.527161 16.0272C0.694306 15.8601 0.892759 15.7275 1.11115 15.637C1.32953 15.5466 1.56361 15.5 1.79999 15.5H107.22C107.697 15.5 108.155 15.6897 108.493 16.0272C108.83 16.3648 109.02 16.8226 109.02 17.3V17.7Z" fill="#001133"/>
</g>
</svg>
